<?xml version="1.0" encoding="iso-8859-1"?>
<!-- Uploaded to: SVG Repo, www.svgrepo.com, Generator: SVG Repo Mixer Tools -->
<svg height="800px" width="800px" version="1.1" id="Layer_1" xmlns="http://www.w3.org/2000/svg" xmlns:xlink="http://www.w3.org/1999/xlink" 
	 viewBox="0 0 512.001 512.001" xml:space="preserve">
<g>
	<path style="fill:#FFE2C4;" d="M283.684,199.267c-2.94,0-5.789-1.564-7.296-4.327c-4.367-8.006-9.317-17.08-9.317-34.421
		c0-17.339,4.949-26.414,9.317-34.421c3.911-7.172,7.289-13.364,7.289-26.47c0-13.104-3.378-19.295-7.289-26.465
		c-4.367-8.005-9.317-17.08-9.317-34.417s4.95-26.41,9.316-34.416c2.195-4.026,7.24-5.51,11.265-3.313
		c4.025,2.195,5.509,7.239,3.313,11.265c-3.911,7.17-7.288,13.361-7.288,26.465s3.378,19.295,7.289,26.465
		c4.367,8.005,9.317,17.08,9.317,34.417c0,17.339-4.95,26.414-9.317,34.421c-3.911,7.172-7.289,13.364-7.289,26.47
		c0,13.107,3.378,19.299,7.288,26.468c2.196,4.026,0.713,9.069-3.313,11.265C286.389,198.94,285.027,199.267,283.684,199.267z"/>
	<path style="fill:#FFE2C4;" d="M327.965,199.267c-2.94,0-5.789-1.564-7.296-4.327c-4.367-8.006-9.317-17.08-9.317-34.421
		c0-17.339,4.95-26.414,9.317-34.421c3.911-7.172,7.289-13.364,7.289-26.47c0-13.104-3.378-19.295-7.289-26.465
		c-4.367-8.005-9.317-17.08-9.317-34.417s4.95-26.41,9.316-34.416c2.195-4.026,7.239-5.51,11.265-3.313
		c4.025,2.195,5.509,7.239,3.313,11.265c-3.911,7.17-7.288,13.361-7.288,26.465s3.378,19.295,7.289,26.465
		c4.367,8.005,9.317,17.08,9.317,34.417c0,17.339-4.95,26.414-9.317,34.421c-3.911,7.172-7.289,13.364-7.289,26.47
		c0,13.107,3.378,19.299,7.288,26.468c2.196,4.026,0.713,9.069-3.313,11.265C330.67,198.94,329.308,199.267,327.965,199.267z"/>
</g>
<g>
	<path style="fill:#008CCB;" d="M394.379,224.174l-83.454,207.624l59.841,80.203h32.469c0-143.914,35.425-143.914,35.425-287.827
		H394.379z"/>
	<polygon style="fill:#008CCB;" points="206.184,323.806 206.184,357.017 153.844,357.017 139.268,340.411 147.113,323.806 	"/>
	<polygon style="fill:#008CCB;" points="172.973,224.174 206.184,257.384 140.427,257.384 128.863,241.419 139.762,224.174 	"/>
</g>
<g>
	<path style="fill:#3AAADC;" d="M139.762,224.174c0,11.945,0.232,22.971,0.664,33.211h-0.664c-18.31,0-33.211,14.901-33.211,33.211
		c0,18.31,14.901,33.211,33.211,33.211h7.351c2.026,12.044,4.328,22.882,6.731,33.211h-14.081
		c-36.687,0-66.422-29.735-66.422-66.422S103.076,224.174,139.762,224.174z"/>
	<path style="fill:#3AAADC;" d="M172.973,224.174h221.405c0,143.914-23.613,143.914-23.613,287.827H208.398
		C208.398,368.087,172.973,368.087,172.973,224.174z"/>
</g>
<g>
	<circle style="fill:#008CCB;" cx="361.168" cy="290.595" r="8.303"/>
	<circle style="fill:#008CCB;" cx="327.957" cy="323.806" r="8.303"/>
</g>
</svg>