<?xml version="1.0" encoding="UTF-8"?>
<svg version="1.1" xmlns="http://www.w3.org/2000/svg" width="500" height="500">
<path d="M0 0 C165 0 330 0 500 0 C500 165 500 330 500 500 C335 500 170 500 0 500 C0 335 0 170 0 0 Z " fill="#E3E1DC" transform="translate(0,0)"/>
<path d="M0 0 C1.03144135 -0.0071553 2.06288269 -0.01431061 3.12557983 -0.02168274 C4.24667145 -0.02437164 5.36776306 -0.02706055 6.52282715 -0.02983093 C8.30676376 -0.03968773 8.30676376 -0.03968773 10.1267395 -0.04974365 C14.0627987 -0.06945326 17.9988445 -0.08114334 21.93493652 -0.09111023 C23.29577148 -0.09516132 24.65660624 -0.09927834 26.0174408 -0.10346031 C32.41666937 -0.12250081 38.81588653 -0.13673088 45.21513796 -0.14507228 C52.57178004 -0.1548228 59.9281195 -0.18108947 67.28465509 -0.22157317 C72.9893729 -0.25187536 78.69400469 -0.26655465 84.39880133 -0.26985329 C87.79691374 -0.2721889 91.1947025 -0.28095149 94.59272766 -0.30631447 C98.39518925 -0.33080749 102.19687241 -0.32972145 105.99938965 -0.32279968 C107.10428741 -0.33560974 108.20918518 -0.3484198 109.3475647 -0.36161804 C120.71995373 -0.28669604 132.0851671 2.47441709 140.77868652 10.14717102 C148.5941233 18.52196311 152.85218775 26.92702699 152.95568848 38.41523743 C152.97494133 40.28340622 152.97494133 40.28340622 152.99458313 42.1893158 C153.00275433 43.54245094 153.01019733 44.89559064 153.01696777 46.24873352 C153.0210433 46.93650249 153.02511883 47.62427147 153.02931786 48.33288193 C153.05013054 51.97654157 153.0644504 55.62016414 153.07385254 59.26387024 C153.08488051 62.99921632 153.11925143 66.73396075 153.15902424 70.46909523 C153.18536084 73.36559541 153.19355952 76.26195618 153.19713402 79.15856552 C153.20195962 80.53389402 153.21345646 81.90921802 153.23217201 83.28442764 C153.40798774 97.06445974 150.43855294 106.92054318 141.03649902 117.01826477 C132.32497707 125.42253387 121.41594862 128.19741131 109.63415527 128.46357727 C108.86436844 128.48435837 108.0945816 128.50513947 107.3014679 128.52655029 C104.85645985 128.59163151 102.41134969 128.65073694 99.96618652 128.70967102 C98.30276475 128.7528957 96.63935309 128.79651123 94.97595215 128.8405304 C90.91030005 128.94727009 86.84454582 129.04865273 82.77868652 129.14717102 C83.64678955 129.46532776 84.51489258 129.7834845 85.40930176 130.11128235 C96.81257824 134.37604554 96.81257824 134.37604554 101.84118652 137.83467102 C106.10933445 140.86647435 106.10933445 140.86647435 110.77868652 143.14717102 C112.81391892 142.40091914 114.84860306 141.65313231 116.88024902 140.89717102 C120.56081411 139.9447876 124.12559791 139.79566443 127.90368652 139.77217102 C128.5723877 139.758797 129.24108887 139.74542297 129.93005371 139.73164368 C135.50922141 139.77976365 140.22109739 140.94512118 144.52087402 144.64717102 C148.13307417 149.43022225 149.50886648 153.18585111 148.77868652 159.14717102 C146.72469164 168.53052892 141.45398192 175.48350506 134.77868652 182.14717102 C134.11868652 182.14717102 133.45868652 182.14717102 132.77868652 182.14717102 C133.84670534 185.03082182 134.88205576 186.22784945 137.34118652 188.14717102 C147.61996003 196.3601126 154.38628833 209.35812344 156.77868652 222.14717102 C158.58820739 240.12619169 153.78350528 256.57512879 142.59118652 270.83467102 C123.2717489 292.97422789 98.20610287 304.51471836 70.02868652 311.33467102 C69.34363037 311.50184631 68.65857422 311.66902161 67.95275879 311.84126282 C60.05502697 313.68175957 52.16590464 314.30297149 44.07165527 314.38545227 C43.27234085 314.39520081 42.47302643 314.40494934 41.64949036 314.41499329 C9.01295404 314.73176636 9.01295404 314.73176636 -6.22131348 310.14717102 C-6.87809082 309.96525208 -7.53486816 309.78333313 -8.21154785 309.59590149 C-31.03414197 303.24304507 -54.70771683 289.49914888 -66.75646973 268.46748352 C-67.98628085 266.05088674 -69.14273451 263.63459152 -70.22131348 261.14717102 C-70.5745166 260.34924133 -70.92771973 259.55131165 -71.29162598 258.72920227 C-75.74589856 246.35830237 -74.46175214 229.95748117 -69.22131348 218.14717102 C-59.13624241 197.82383794 -59.13624241 197.82383794 -50.22131348 194.14717102 C-50.26771973 193.14299133 -50.31412598 192.13881165 -50.36193848 191.10420227 C-50.85706398 175.79296386 -47.40199778 163.0715539 -36.81506348 151.52217102 C-26.57031956 141.6390063 -10.72591425 131.11414441 3.77868652 130.14717102 C3.77868652 129.48717102 3.77868652 128.82717102 3.77868652 128.14717102 C2.52056152 128.22967102 1.26243652 128.31217102 -0.03381348 128.39717102 C-10.3001091 128.36493775 -19.78723377 123.23066494 -27.15881348 116.33467102 C-34.22457574 108.78161481 -38.3183267 100.29932412 -38.38244629 89.96089172 C-38.39205383 88.70891495 -38.40166138 87.45693817 -38.41156006 86.16702271 C-38.41640975 84.80233443 -38.42068815 83.43764401 -38.42443848 82.07295227 C-38.42867954 81.03617875 -38.42867954 81.03617875 -38.43300629 79.97846031 C-38.44797923 76.31765233 -38.45721943 72.65688354 -38.46154785 68.99604797 C-38.46701639 65.2348044 -38.49101517 61.47392578 -38.51951981 57.71279621 C-38.53825218 54.80350744 -38.54335747 51.89430451 -38.54488373 48.98496056 C-38.54788912 47.59962669 -38.55584527 46.21429356 -38.56906891 44.82901955 C-38.69088282 31.08211597 -36.02200926 21.25952408 -26.65881348 11.02217102 C-19.32776702 3.95593423 -10.13515191 0.04850618 0 0 Z " fill="#E0AFA1" transform="translate(209.2213134765625,77.85282897949219)"/>
<path d="M0 0 C0.65742188 0.46019531 1.31484375 0.92039063 1.9921875 1.39453125 C8.82172863 6.6608663 13.82672269 14.69644045 16 23 C17.26714068 36.25829305 15.43196516 46.48249251 7.1875 57.3125 C-9.27313699 76.45561117 -35.05784707 87.1448547 -59.97155762 89.15942383 C-85.80279985 90.80429825 -113.19847292 89.28031458 -133.625 71.4375 C-135.10616022 69.98119146 -136.56719008 68.50390354 -138 67 C-138.59296875 66.41476562 -139.1859375 65.82953125 -139.796875 65.2265625 C-146.57284823 58.08160063 -149.42236612 48.23602974 -149.27734375 38.51953125 C-147.79372683 25.04160294 -139.05317627 13.45679443 -128.79296875 5.23046875 C-117.18312998 -3.29881579 -105.0478683 -8.93937508 -91.1484375 -12.44873047 C-89.0247853 -12.99364032 -86.92018459 -13.58801246 -84.8125 -14.19140625 C-57.25286371 -21.76853587 -23.25078076 -16.63440103 0 0 Z " fill="#2B1007" transform="translate(311,219)"/>
<path d="M0 0 C11.83183096 5.70147931 19.73337197 17.86838295 24 30 C28.77777946 46.41941109 26.09856373 62.67702254 18.00390625 77.6171875 C2.69061943 103.46768728 -25.8439897 118.23413092 -54.06884766 125.53515625 C-56.29277008 126.09964865 -58.51994922 126.64774715 -60.75 127.1875 C-61.43505615 127.35467529 -62.1201123 127.52185059 -62.82592773 127.6940918 C-70.72365955 129.53458855 -78.61278188 130.15580047 -86.70703125 130.23828125 C-87.50634567 130.24802979 -88.3056601 130.25777832 -89.12919617 130.26782227 C-121.76573248 130.58459534 -121.76573248 130.58459534 -137 126 C-137.65677734 125.81808105 -138.31355469 125.63616211 -138.99023438 125.44873047 C-161.81282849 119.09587405 -185.48640336 105.35197786 -197.53515625 84.3203125 C-198.76496737 81.90371572 -199.92142103 79.48742049 -201 77 C-201.52980469 75.80310547 -201.52980469 75.80310547 -202.0703125 74.58203125 C-206.52458508 62.21113135 -205.24043867 45.81031015 -200 34 C-189.91492894 13.67666692 -189.91492894 13.67666692 -181 10 C-180.99613281 10.84304688 -180.99613281 10.84304688 -180.9921875 11.703125 C-179.86414613 36.21922411 -167.12388047 58.79691554 -149.8125 75.53125 C-131.34697471 91.73987775 -108.8104908 96.39837344 -84.97802734 95.22314453 C-67.7242508 93.9303136 -50.76099589 87.85629842 -38 76 C-37.3915625 75.48179687 -36.783125 74.96359375 -36.15625 74.4296875 C-19.9847173 59.8018011 -10.16147586 33.67039531 -8.42675781 12.52050781 C-7.8953687 7.85653123 -7.0180065 5.55365267 -3.3984375 2.44140625 C-2.28254318 1.60455629 -1.15491377 0.78212031 0 0 Z " fill="#544C4C" transform="translate(340,262)"/>
<path d="M0 0 C13.2 0 26.4 0 40 0 C40 0.33 40 0.66 40 1 C22.675 1.495 22.675 1.495 5 2 C9.29 3.65 13.58 5.3 18 7 C21.53515625 8.94921875 21.53515625 8.94921875 24.0625 10.6875 C28.33064793 13.71930333 28.33064793 13.71930333 33 16 C35.0352324 15.25374812 37.06991654 14.50596129 39.1015625 13.75 C42.78212758 12.79761658 46.34691139 12.64849341 50.125 12.625 C50.79370117 12.61162598 51.46240234 12.59825195 52.15136719 12.58447266 C57.73053489 12.63259263 62.44241086 13.79795016 66.7421875 17.5 C70.35438765 22.28305123 71.73017995 26.03868008 71 32 C68.94600512 41.3833579 63.67529539 48.33633404 57 55 C56.34 55 55.68 55 55 55 C55 55.66 55 56.32 55 57 C53.730447 57.64834654 52.45930294 58.29357815 51.1875 58.9375 C47.9736785 61.25796902 46.75927378 63.10698969 46.046875 66.91796875 C45.82331952 68.48419875 45.62133696 70.0536129 45.4375 71.625 C42.98091656 92.35179299 34.18991596 113.50461177 20 129 C19.06414062 130.05574219 19.06414062 130.05574219 18.109375 131.1328125 C4.55565967 145.62316669 -15.49177151 152.46198205 -34.94140625 153.31640625 C-57.90499765 153.93440164 -79.74952919 149.14876007 -97 133 C-97.90105469 132.18917969 -98.80210937 131.37835938 -99.73046875 130.54296875 C-106.93186201 123.75875965 -112.0567327 116.51284774 -117 108 C-117.72123047 106.80697266 -117.72123047 106.80697266 -118.45703125 105.58984375 C-119.83564668 103.10833598 -120.93544848 100.6335474 -122 98 C-122.38913574 97.039729 -122.38913574 97.039729 -122.78613281 96.06005859 C-129.30601312 79.32419512 -132.04164865 57.76333667 -125.3125 40.63671875 C-116.12663287 22.18296781 -100.04367379 11.06458866 -81 4 C-78.60994866 3.44009287 -76.45653782 3.16376919 -74 3 C-76.33193332 5.33193332 -78.17589033 5.94960513 -81.25 7.125 C-98.79374377 14.34395677 -113.25412799 24.04452903 -121.2421875 41.75390625 C-125.63541463 52.64607972 -124.43117637 61.17585711 -120 72 C-118.28782249 74.98520863 -116.31968608 77.46688033 -114 80 C-113.49855469 80.59167969 -112.99710938 81.18335938 -112.48046875 81.79296875 C-104.26822012 90.84442527 -92.55993783 95.73202308 -81 99 C-80.08895508 99.26039063 -79.17791016 99.52078125 -78.23925781 99.7890625 C-69.33506561 102.10255506 -60.7562484 102.55937276 -51.625 102.5 C-50.88321503 102.49790527 -50.14143005 102.49581055 -49.37716675 102.49365234 C-24.46615788 102.3493472 -0.01894902 96.46228384 20 81 C20.81855469 80.37480469 21.63710938 79.74960937 22.48046875 79.10546875 C28.39706863 74.23938744 32.33492719 68.69446903 36 62 C36.36222656 61.37867188 36.72445312 60.75734375 37.09765625 60.1171875 C40.7126071 52.6182662 40.05281927 42.03896516 38.37890625 34.02734375 C33.970085 21.66304948 24.30189958 13.82443736 13 8 C8.76729074 6.0589679 4.42000048 4.4610965 0 3 C0 2.01 0 1.02 0 0 Z " fill="#DDBFAC" transform="translate(287,205)"/>
<path d="M0 0 C2.62196431 2.62196431 3.97572835 4.4952772 5.6875 7.6875 C6.12449219 8.49574219 6.56148437 9.30398437 7.01171875 10.13671875 C7.50091797 11.05904297 7.50091797 11.05904297 8 12 C11.46941546 11.54177532 14.67395049 11.10868317 18 10 C18 10.99 18 11.98 18 13 C20.64 12.67 23.28 12.34 26 12 C26.66 9.69 27.32 7.38 28 5 C30.97 5 33.94 5 37 5 C37.66 7.31 38.32 9.62 39 12 C44.94 12 50.88 12 57 12 C57.99 9.69 58.98 7.38 60 5 C62.64 5 65.28 5 68 5 C68.99 8.465 68.99 8.465 70 12 C74.95 12.495 74.95 12.495 80 13 C79.505 11.39125 79.505 11.39125 79 9.75 C78 6 78 6 78 2 C78.99 2 79.98 2 81 2 C81.495 6.95 81.495 6.95 82 12 C84.97 12.33 87.94 12.66 91 13 C91 9.7 91 6.4 91 3 C95.65537356 2.07907719 100.14685433 1.87794003 104.875 1.9375 C105.56335938 1.94201172 106.25171875 1.94652344 106.9609375 1.95117188 C108.64066335 1.96283664 110.32034375 1.98076729 112 2 C112 2.66 112 3.32 112 4 C110.68 4.33 109.36 4.66 108 5 C108 7.31 108 9.62 108 12 C113.94 12 119.88 12 126 12 C126 9.69 126 7.38 126 5 C124.02 4.505 124.02 4.505 122 4 C122 3.34 122 2.68 122 2 C127.43544554 2.43483564 130.76167555 3.53228 135 7 C137.82764645 10.39317574 138.58184194 13.42544332 138.4296875 17.86328125 C137.65092705 21.7358446 135.59089476 25.04795021 133 28 C132.34 28 131.68 28 131 28 C131 28.66 131 29.32 131 30 C132.11375 30.2784375 132.11375 30.2784375 133.25 30.5625 C136.99041879 32.51771891 138.58572943 35.14289844 140 39 C140.84804315 43.36870712 140.35110294 46.86010655 138.3125 50.8125 C135.35584337 54.88789157 133.14216712 56.56612198 128.21435547 57.56420898 C125.07496493 57.98983652 122.11111403 58.11397481 118.9453125 58.09765625 C117.83671875 58.09443359 116.728125 58.09121094 115.5859375 58.08789062 C114.44382812 58.07951172 113.30171875 58.07113281 112.125 58.0625 C110.9596875 58.05798828 109.794375 58.05347656 108.59375 58.04882812 C105.72911355 58.03708781 102.86458367 58.0206657 100 58 C98.5216774 55.04335481 98.93967217 52.25770263 99 49 C96.69 49 94.38 49 92 49 C91.75121094 49.60457031 91.50242187 50.20914063 91.24609375 50.83203125 C89.80202545 53.34443848 88.53864187 54.22579242 86.0625 55.6875 C85.37285156 56.10386719 84.68320312 56.52023438 83.97265625 56.94921875 C80.22944119 58.94312935 77.05841874 59.21854615 72.875 59.3125 C71.26238281 59.36857422 71.26238281 59.36857422 69.6171875 59.42578125 C64.91667331 58.87248098 61.20098967 57.10168256 57 55 C56.82871582 55.60473145 56.65743164 56.20946289 56.48095703 56.83251953 C55.69705513 59.59708376 54.91104554 62.36104454 54.125 65.125 C53.85558594 66.07632813 53.58617187 67.02765625 53.30859375 68.0078125 C51.97002872 72.70911408 50.60226656 77.37987216 49 82 C47.56256149 79.289249 46.52732836 76.69772072 45.7109375 73.7421875 C45.49179688 72.95199219 45.27265625 72.16179687 45.046875 71.34765625 C44.82515625 70.53167969 44.6034375 69.71570313 44.375 68.875 C44.14554687 68.05128906 43.91609375 67.22757812 43.6796875 66.37890625 C42 60.27004278 42 60.27004278 42 58 C35.73 58 29.46 58 23 58 C22.67 60.64 22.34 63.28 22 66 C21.36394157 68.5135803 20.67815304 71.01522852 19.9375 73.5 C19.57527344 74.7271875 19.21304688 75.954375 18.83984375 77.21875 C18.56269531 78.1365625 18.28554687 79.054375 18 80 C9.51870257 71.64918407 9.51870257 71.64918407 7 67 C7.4375 64.3125 7.4375 64.3125 9 62 C10.00505464 60.33637656 11.005708 58.6700782 12 57 C10.76636719 57.37705078 10.76636719 57.37705078 9.5078125 57.76171875 C1.84157923 59.85975257 -3.80622538 60.78165892 -11 57 C-17.43052761 52.89034943 -22.06326834 47.43598347 -24 40 C-25.17521426 30.65318348 -25.69016639 20.17215383 -20.5703125 11.921875 C-18.05957355 8.84903031 -15.3883253 6.09956681 -12 4 C-11.34 4 -10.68 4 -10 4 C-10 6.97 -10 9.94 -10 13 C-6.7 13 -3.4 13 0 13 C0 8.71 0 4.42 0 0 Z " fill="#E2D7D0" transform="translate(209,112)"/>
<path d="M0 0 C0.65742188 0.46019531 1.31484375 0.92039063 1.9921875 1.39453125 C8.88547706 6.71002342 13.6783194 14.67784057 16 23 C16.07522969 25.33212027 16.09325876 27.6685311 16 30 C15.071875 29.175 14.14375 28.35 13.1875 27.5 C-1.38997832 15.12947059 -16.96820557 7.8915764 -35 2 C-35 4.64 -35 7.28 -35 10 C-34.01 10.0928125 -34.01 10.0928125 -33 10.1875 C-28.81342164 11.32136497 -25.57449008 13.59631064 -22 16 C-22.495 16.99 -22.495 16.99 -23 18 C-24.175625 17.505 -25.35125 17.01 -26.5625 16.5 C-30.56133147 15.03752983 -33.71444763 14.27226469 -38 15 C-40.10785924 16.83639252 -41.39481281 18.66518227 -43 21 C-43.66 20.67 -44.32 20.34 -45 20 C-43.68 17.69 -42.36 15.38 -41 13 C-45.0760556 13.01263893 -49.00449708 13.15395772 -53 14 C-55.22594981 16.70138447 -55.22594981 16.70138447 -56 20 C-56.96534522 21.35863401 -57.95277149 22.70343137 -59 24 C-59.66 23.67 -60.32 23.34 -61 23 C-60.67 22.67 -60.34 22.34 -60 22 C-59.76924918 20.65252916 -59.58846937 19.29622435 -59.4375 17.9375 C-59.2209375 15.9884375 -59.2209375 15.9884375 -59 14 C-60.12019531 14.2165625 -61.24039063 14.433125 -62.39453125 14.65625 C-63.86715999 14.93764403 -65.33981776 15.21888611 -66.8125 15.5 C-67.55048828 15.64308594 -68.28847656 15.78617188 -69.04882812 15.93359375 C-72.07794391 16.50926281 -74.909196 17 -78 17 C-78.020625 18.11375 -78.04125 19.2275 -78.0625 20.375 C-78.74885351 26.17780695 -82.19496204 30.71164313 -86 35 C-86.66 35 -87.32 35 -88 35 C-87 33 -86 31 -85 29 C-84.77377919 27.29636178 -84.59111527 25.58671299 -84.4375 23.875 C-84.31181641 22.50988281 -84.31181641 22.50988281 -84.18359375 21.1171875 C-84.12300781 20.41851562 -84.06242187 19.71984375 -84 19 C-100.74176465 24.96242635 -115.41389965 31.22955362 -129 43 C-129.74609375 41.30078125 -129.74609375 41.30078125 -130 39 C-127.4595998 35.27366359 -124.18108238 32.18602195 -121 29 C-120.37609375 28.36449219 -119.7521875 27.72898438 -119.109375 27.07421875 C-112.43868362 20.76606495 -100.38936019 12 -91 12 C-91.99 10.35 -92.98 8.7 -94 7 C-107.55043907 9.99733214 -118.81959999 17.85544356 -129 27 C-129.71800781 27.63550781 -130.43601563 28.27101562 -131.17578125 28.92578125 C-136.08246587 33.5275845 -139.65422871 38.68550227 -143.23828125 44.36328125 C-144.69797086 46.54796082 -146.06086734 48.25179732 -148 50 C-150.87593441 38.85575417 -147.75109303 29.61226135 -142.25 19.8125 C-131.15990491 2.29014976 -110.64879175 -7.52524301 -91.1484375 -12.44873047 C-89.0247853 -12.99364032 -86.92018459 -13.58801246 -84.8125 -14.19140625 C-57.25286371 -21.76853587 -23.25078076 -16.63440103 0 0 Z " fill="#735648" transform="translate(311,219)"/>
<path d="M0 0 C0.721875 0.00257812 1.44375 0.00515625 2.1875 0.0078125 C2.909375 0.00523438 3.63125 0.00265625 4.375 0 C6.1875 0.1328125 6.1875 0.1328125 7.1875 1.1328125 C7.6476125 4.45584725 7.89131212 7.79012068 8.1875 11.1328125 C9.8375 7.8328125 11.4875 4.5328125 13.1875 1.1328125 C16.8175 1.1328125 20.4475 1.1328125 24.1875 1.1328125 C23.00763265 5.85228188 20.84236851 9.32464597 18.3671875 13.4765625 C17.02754498 15.95635621 17.02754498 15.95635621 17.28515625 18.1484375 C18.49053408 20.79922512 20.04354456 23.02480135 21.75 25.3828125 C22.39066406 26.27484375 23.03132813 27.166875 23.69140625 28.0859375 C24.18511719 28.76140625 24.67882812 29.436875 25.1875 30.1328125 C26.95828997 24.00381616 28.63832348 17.85131565 30.3125 11.6953125 C30.58964844 10.67759766 30.86679688 9.65988281 31.15234375 8.61132812 C31.83111617 6.11859493 32.50936141 3.6257182 33.1875 1.1328125 C38.1375 1.1328125 43.0875 1.1328125 48.1875 1.1328125 C49.18868797 5.18864539 50.18701833 9.24496823 51.17822266 13.30322266 C51.51608656 14.68286061 51.85558901 16.06209839 52.19677734 17.44091797 C52.68761186 19.42572108 53.17248744 21.41190049 53.65625 23.3984375 C53.94951172 24.59243164 54.24277344 25.78642578 54.54492188 27.01660156 C55.1875 30.1328125 55.1875 30.1328125 55.1875 34.1328125 C55.8475 34.1328125 56.5075 34.1328125 57.1875 34.1328125 C57.13142578 32.85083984 57.13142578 32.85083984 57.07421875 31.54296875 C57.19522985 27.90011743 57.92449107 25.04658295 59 21.5703125 C61.02415857 14.8063093 62.65601538 8.02449328 64.1875 1.1328125 C69.1375 1.1328125 74.0875 1.1328125 79.1875 1.1328125 C80.33010872 5.63438478 81.47054619 10.13639247 82.60546875 14.63989258 C82.99221497 16.17179046 83.38022764 17.70336918 83.76953125 19.23461914 C84.32885594 21.43553328 84.88361752 23.63755461 85.4375 25.83984375 C85.61249023 26.52432083 85.78748047 27.20879791 85.96777344 27.91401672 C86.67491106 30.74156679 87.1875 33.20435251 87.1875 36.1328125 C83.8875 36.1328125 80.5875 36.1328125 77.1875 36.1328125 C75.1875 30.3828125 75.1875 30.3828125 75.1875 28.1328125 C72.5475 28.1328125 69.9075 28.1328125 67.1875 28.1328125 C66.878125 29.2671875 66.56875 30.4015625 66.25 31.5703125 C65.1875 35.1328125 65.1875 35.1328125 64.1875 36.1328125 C62.84482587 36.21913124 61.49775678 36.23987723 60.15234375 36.23046875 C59.34345703 36.22724609 58.53457031 36.22402344 57.70117188 36.22070312 C56.85103516 36.21232422 56.00089844 36.20394531 55.125 36.1953125 C54.27099609 36.19080078 53.41699219 36.18628906 52.53710938 36.18164062 C50.42054337 36.16981623 48.30401315 36.15188019 46.1875 36.1328125 C44.93085022 33.22680989 44.1875 31.33676666 44.1875 28.1328125 C41.2175 28.1328125 38.2475 28.1328125 35.1875 28.1328125 C35.043125 29.2671875 34.89875 30.4015625 34.75 31.5703125 C34.1875 35.1328125 34.1875 35.1328125 33.1875 36.1328125 C30.51691149 36.27396411 27.86317762 36.17528357 25.1875 36.1328125 C24.8575 35.4728125 24.5275 34.8128125 24.1875 34.1328125 C23.630625 34.4628125 23.07375 34.7928125 22.5 35.1328125 C19.60554714 36.38446779 18.29191907 36.88998788 15.1875 36.1328125 C12.20774001 32.51942539 10.27163425 28.30108099 8.1875 24.1328125 C7.8575 28.0928125 7.5275 32.0528125 7.1875 36.1328125 C3.8875 36.1328125 0.5875 36.1328125 -2.8125 36.1328125 C-2.83715098 31.16658901 -2.85533649 26.20040084 -2.86743164 21.23413086 C-2.8724719 19.54336934 -2.87930405 17.85261221 -2.88793945 16.16186523 C-2.90001857 13.73680543 -2.90573123 11.31180306 -2.91015625 8.88671875 C-2.91531754 8.12629776 -2.92047882 7.36587677 -2.92579651 6.58241272 C-2.92599238 4.7654868 -2.87447277 2.94868123 -2.8125 1.1328125 C-1.8125 0.1328125 -1.8125 0.1328125 0 0 Z " fill="#DC5D40" transform="translate(201.8125,88.8671875)"/>
<path d="M0 0 C2.62196431 2.62196431 3.97572835 4.4952772 5.6875 7.6875 C6.12449219 8.49574219 6.56148437 9.30398437 7.01171875 10.13671875 C7.50091797 11.05904297 7.50091797 11.05904297 8 12 C11.46941546 11.54177532 14.67395049 11.10868317 18 10 C18.01030746 10.5593222 18.02061493 11.11864441 18.03123474 11.69491577 C18.1391881 17.5021358 18.25379498 23.30919714 18.37231445 29.11621094 C18.41569919 31.28512256 18.45737161 33.45406913 18.49731445 35.62304688 C18.55493139 38.73578435 18.61865038 41.84834535 18.68359375 44.9609375 C18.70030624 45.934935 18.71701874 46.9089325 18.73423767 47.91244507 C18.7641555 49.26361923 18.7641555 49.26361923 18.79467773 50.64208984 C18.81799416 51.83455826 18.81799416 51.83455826 18.84178162 53.05111694 C18.88441725 55.07997774 18.88441725 55.07997774 20 57 C20.99 57.33 21.98 57.66 23 58 C22.38955672 65.63054095 20.20378179 72.70189474 18 80 C9.51870257 71.64918407 9.51870257 71.64918407 7 67 C7.4375 64.3125 7.4375 64.3125 9 62 C10.00505464 60.33637656 11.005708 58.6700782 12 57 C10.76636719 57.37705078 10.76636719 57.37705078 9.5078125 57.76171875 C1.84157923 59.85975257 -3.80622538 60.78165892 -11 57 C-17.43052761 52.89034943 -22.06326834 47.43598347 -24 40 C-25.17521426 30.65318348 -25.69016639 20.17215383 -20.5703125 11.921875 C-18.05957355 8.84903031 -15.3883253 6.09956681 -12 4 C-11.34 4 -10.68 4 -10 4 C-10 6.97 -10 9.94 -10 13 C-6.7 13 -3.4 13 0 13 C0 8.71 0 4.42 0 0 Z " fill="#E2D7D0" transform="translate(209,112)"/>
<path d="M0 0 C0.2165625 1.918125 0.2165625 1.918125 0.4375 3.875 C1.64516103 9.60457976 5.07117313 12.87141897 9.1015625 16.93359375 C11 19 11 19 11 21 C9.72125 21.18175781 8.4425 21.36351562 7.125 21.55078125 C5.41659806 21.80422549 3.70826848 22.0581578 2 22.3125 C1.16082031 22.43044922 0.32164062 22.54839844 -0.54296875 22.66992188 C-6.05186854 23.50266254 -10.84841475 24.8713936 -16 27 C-15.34 27.78375 -14.68 28.5675 -14 29.375 C-12 32 -12 32 -12 34 C-12.58789307 34.22550537 -13.17578613 34.45101074 -13.78149414 34.68334961 C-29.52310637 40.77583707 -43.72879075 47.4372008 -57 58 C-56.17667989 52.04122069 -53.09735079 49.17480543 -49 45 C-48.34902344 44.33613281 -47.69804687 43.67226562 -47.02734375 42.98828125 C-40.09224001 36.39021059 -27.93817331 27 -18 27 C-18.99 25.35 -19.98 23.7 -21 22 C-34.55043907 24.99733214 -45.81959999 32.85544356 -56 42 C-56.71800781 42.63550781 -57.43601563 43.27101562 -58.17578125 43.92578125 C-63.08246587 48.5275845 -66.65422871 53.68550227 -70.23828125 59.36328125 C-71.69797086 61.54796082 -73.06086734 63.25179732 -75 65 C-77.87593441 53.85575417 -74.75109303 44.61226135 -69.25 34.8125 C-57.62380138 16.44310617 -36.28592383 7.12983092 -16 2 C-15.2992334 1.81163574 -14.5984668 1.62327148 -13.87646484 1.42919922 C-9.00175753 0.14220392 -4.98844025 -0.17815858 0 0 Z " fill="#705447" transform="translate(238,204)"/>
<path d="M0 0 C4.95 1.98 4.95 1.98 10 4 C14.90388193 4.78813162 14.90388193 4.78813162 19 5 C20.00597015 8.76926669 21.00374802 12.54065412 22 16.3125 C22.28617187 17.38435547 22.57234375 18.45621094 22.8671875 19.56054688 C23.27324219 21.10258789 23.27324219 21.10258789 23.6875 22.67578125 C23.93886719 23.62364502 24.19023437 24.57150879 24.44921875 25.5480957 C25 28 25 28 25 31 C23.37536158 31.05395478 21.75021459 31.09277195 20.125 31.125 C18.76761719 31.15980469 18.76761719 31.15980469 17.3828125 31.1953125 C15 31 15 31 13 29 C12.60235737 27.01178687 12.26224651 25.01055661 12 23 C8.04 23.495 8.04 23.495 4 24 C3.5359375 25.4540625 3.5359375 25.4540625 3.0625 26.9375 C2 30 2 30 1 31 C-1.99018161 31.12667764 -4.94694108 31.18520838 -7.9375 31.1875 C-8.77474609 31.19974609 -9.61199219 31.21199219 -10.47460938 31.22460938 C-11.67633789 31.22750977 -11.67633789 31.22750977 -12.90234375 31.23046875 C-13.63960693 31.23457764 -14.37687012 31.23868652 -15.13647461 31.24291992 C-17 31 -17 31 -19 29 C-19.39764263 27.01178687 -19.73775349 25.01055661 -20 23 C-24.10700777 23.04003055 -24.10700777 23.04003055 -28 24 C-29.68983507 26.28980909 -30.18962861 28.21434833 -31 31 C-33.64 31 -36.28 31 -39 31 C-39 30.01 -39 29.02 -39 28 C-40.051875 28.7425 -40.051875 28.7425 -41.125 29.5 C-44.39407495 31.20560432 -46.37336768 31.12055287 -50 31 C-51.00508801 29.21118264 -52.00392736 27.41885304 -53 25.625 C-53.8353125 24.12839844 -53.8353125 24.12839844 -54.6875 22.6015625 C-56 20 -56 20 -56 18 C-56.66 18 -57.32 18 -58 18 C-58 22.29 -58 26.58 -58 31 C-61.3 31 -64.6 31 -68 31 C-68 21.43 -68 11.86 -68 2 C-62.06 3.485 -62.06 3.485 -56 5 C-52.31653638 4.97598429 -52.31653638 4.97598429 -49.25 4.1875 C-48.24453125 3.97480469 -47.2390625 3.76210937 -46.203125 3.54296875 C-45.47609375 3.36378906 -44.7490625 3.18460938 -44 3 C-45.03131162 5.57827904 -46.00518781 8.00896998 -47.3984375 10.41796875 C-48.35420445 13.19764326 -48.35420445 13.19764326 -46.2265625 16.11328125 C-45.38103747 17.1969435 -44.50912932 18.26009714 -43.625 19.3125 C-42.09875 21.189375 -40.5725 23.06625 -39 25 C-37.02 18.07 -35.04 11.14 -33 4 C-26.73 4 -20.46 4 -14 4 C-13.36771484 6.13082031 -13.36771484 6.13082031 -12.72265625 8.3046875 C-12.16936747 10.16148713 -11.61597678 12.0182564 -11.0625 13.875 C-10.64581055 15.28072266 -10.64581055 15.28072266 -10.22070312 16.71484375 C-9.81948242 18.05869141 -9.81948242 18.05869141 -9.41015625 19.4296875 C-9.16402588 20.25710449 -8.91789551 21.08452148 -8.66430664 21.93701172 C-8.0473112 24.03165657 -8.0473112 24.03165657 -7 26 C-4.69 17.42 -2.38 8.84 0 0 Z " fill="#DC5B3E" transform="translate(265,166)"/>
<path d="M0 0 C1.98 0 3.96 0 6 0 C6 12.21 6 24.42 6 37 C10.29 37 14.58 37 19 37 C20 38 20 38 20.1328125 40.90625 C20.13023437 42.0921875 20.12765625 43.278125 20.125 44.5 C20.12886719 46.27890625 20.12886719 46.27890625 20.1328125 48.09375 C20 51 20 51 19 52 C14.36045946 52.28188316 9.7095829 52.2318207 5.0625 52.25 C3.74830078 52.270625 2.43410156 52.29125 1.08007812 52.3125 C-0.17224609 52.31765625 -1.42457031 52.3228125 -2.71484375 52.328125 C-3.87105225 52.3374707 -5.02726074 52.34681641 -6.21850586 52.35644531 C-7.13639893 52.23881836 -8.05429199 52.12119141 -9 52 C-11.06037303 48.90944045 -11.24799242 48.29073838 -11.22705078 44.80395508 C-11.22689972 43.96331009 -11.22674866 43.1226651 -11.22659302 42.25654602 C-11.21627045 41.35333115 -11.20594788 40.45011627 -11.1953125 39.51953125 C-11.1924826 38.59154221 -11.18965271 37.66355316 -11.18673706 36.70744324 C-11.17553836 33.74233121 -11.15043435 30.77752079 -11.125 27.8125 C-11.1149698 25.80273874 -11.10584402 23.79297274 -11.09765625 21.78320312 C-11.07560004 16.85535247 -11.04107229 11.92772738 -11 7 C-7.97265625 6.75891113 -7.97265625 6.75891113 -4.9453125 6.51782227 C-2.59434664 6.12409765 -2.59434664 6.12409765 -1 2.9375 C-0.67 1.968125 -0.34 0.99875 0 0 Z " fill="#E2D7D0" transform="translate(238,118)"/>
<path d="M0 0 C0.10957031 0.58007812 0.21914062 1.16015625 0.33203125 1.7578125 C0.49058594 2.53898438 0.64914063 3.32015625 0.8125 4.125 C0.96332031 4.89070312 1.11414063 5.65640625 1.26953125 6.4453125 C2.14859829 9.51969669 3.50787 12.1792611 5 15 C3.97261719 15.49628906 2.94523437 15.99257812 1.88671875 16.50390625 C-19.08826576 26.73492472 -34.6995745 38.872031 -47 59 C-47.33 59 -47.66 59 -48 59 C-50.87593441 47.85575417 -47.75109303 38.61226135 -42.25 28.8125 C-34.7347637 16.93842665 -14.98639865 0 0 0 Z " fill="#5D4438" transform="translate(211,210)"/>
<path d="M0 0 C17.10858231 0.97667104 33.00722268 5.98909018 47 16 C47.65742188 16.46019531 48.31484375 16.92039063 48.9921875 17.39453125 C55.88547706 22.71002342 60.6783194 30.67784057 63 39 C63.07522969 41.33212027 63.09325876 43.6685311 63 46 C62.071875 45.175 61.14375 44.35 60.1875 43.5 C45.61002168 31.12947059 30.03179443 23.8915764 12 18 C11.67 18.66 11.34 19.32 11 20 C10.649375 19.01 10.29875 18.02 9.9375 17 C8.22792294 12.92013978 5.59964813 10.12031729 2.5234375 6.9921875 C0.74557576 4.66729138 0.3679444 2.87394407 0 0 Z " fill="#5F4538" transform="translate(264,203)"/>
<path d="M0 0 C0.01030746 0.5593222 0.02061493 1.11864441 0.03123474 1.69491577 C0.1391881 7.5021358 0.25379498 13.30919714 0.37231445 19.11621094 C0.41569919 21.28512256 0.45737161 23.45406913 0.49731445 25.62304688 C0.55493139 28.73578435 0.61865038 31.84834535 0.68359375 34.9609375 C0.70030624 35.934935 0.71701874 36.9089325 0.73423767 37.91244507 C0.75418289 38.81322784 0.77412811 39.71401062 0.79467773 40.64208984 C0.81799416 41.83455826 0.81799416 41.83455826 0.84178162 43.05111694 C0.88441725 45.07997774 0.88441725 45.07997774 2 47 C3.485 47.495 3.485 47.495 5 48 C4.38955672 55.63054095 2.20378179 62.70189474 0 70 C-8.47025496 61.66005666 -8.47025496 61.66005666 -11 57 C-10.5625 54.375 -10.5625 54.375 -9 52 C-8.525625 50.948125 -8.05125 49.89625 -7.5625 48.8125 C-6 46 -6 46 -3 44 C-3.47939368 39.28596212 -3.96834048 35.33420699 -6 31 C-6.66 31.33 -7.32 31.66 -8 32 C-11.77788579 33.25929526 -15.05675383 33.66119077 -19 33 C-22.44312714 30.8755173 -23.71617547 29.85147359 -25 26 C-25.12016328 23.85662235 -25.17531664 21.70920876 -25.1875 19.5625 C-25.20167969 18.42941406 -25.21585938 17.29632813 -25.23046875 16.12890625 C-25.00680538 13.09239167 -24.70318718 11.48405041 -23 9 C-19.36804504 6.57869669 -17.61650652 6.78977215 -13.3125 6.875 C-12.13300781 6.89304688 -10.95351562 6.91109375 -9.73828125 6.9296875 C-8.38283203 6.96449219 -8.38283203 6.96449219 -7 7 C-6.56880859 5.80310547 -6.56880859 5.80310547 -6.12890625 4.58203125 C-5 2 -5 2 -2.9375 0.6875 C-1 0 -1 0 0 0 Z " fill="#E0AFA1" transform="translate(227,122)"/>
<path d="M0 0 C2.97 0 5.94 0 9 0 C9.66 2.31 10.32 4.62 11 7 C14.3 7.33 17.6 7.66 21 8 C21.01458252 8.83660156 21.02916504 9.67320313 21.04418945 10.53515625 C21.10567219 13.67403443 21.17990165 16.81229416 21.26245117 19.95068359 C21.31159645 21.96300311 21.34636288 23.97565732 21.38085938 25.98828125 C21.57328472 32.95058011 21.8307239 38.73672752 25 45 C25.53141602 45.47896729 26.06283203 45.95793457 26.61035156 46.45141602 C28 48 28 48 28.18188477 49.89038086 C27.31901795 55.97633832 25.78936342 61.70614305 23.9375 67.5625 C23.65583984 68.47580078 23.37417969 69.38910156 23.08398438 70.33007812 C22.39648178 72.55572212 21.70174718 74.77881482 21 77 C19.56256149 74.289249 18.52732836 71.69772072 17.7109375 68.7421875 C17.49179688 67.95199219 17.27265625 67.16179687 17.046875 66.34765625 C16.82515625 65.53167969 16.6034375 64.71570313 16.375 63.875 C16.14554688 63.05128906 15.91609375 62.22757813 15.6796875 61.37890625 C14 55.27004278 14 55.27004278 14 53 C16.97 52.505 16.97 52.505 20 52 C20 47.71 20 43.42 20 39 C15.71 38.67 11.42 38.34 7 38 C7 25.79 7 13.58 7 1 C4.69 1.33 2.38 1.66 0 2 C0 1.34 0 0.68 0 0 Z " fill="#E0AFA1" transform="translate(237,117)"/>
<path d="M0 0 C16 0 16 0 21 2 C23.93496886 5.44099797 24.48485919 8.50686549 24.28125 13.01171875 C23.61369316 17.73097477 21.77456361 20.34592406 18.1875 23.375 C14.76995408 25.11727831 12.77556505 25.35957762 9 25 C9 28.3 9 31.6 9 35 C6.03 35 3.06 35 0 35 C0 23.45 0 11.9 0 0 Z " fill="#DC5B3F" transform="translate(291,90)"/>
<path d="M0 0 C3.625 -0.1875 3.625 -0.1875 7 0 C7.33 2.97 7.66 5.94 8 9 C10.31 9 12.62 9 15 9 C15.31774533 13.6073073 15.42909733 16.1253016 13.375 20.3125 C10.7315722 23.30374725 8.73524998 24.62786735 5 26 C3.35 26 1.7 26 0 26 C0 29.3 0 32.6 0 36 C-3.3 36 -6.6 36 -10 36 C-10.23248586 31.43835918 -10.37448143 26.87823781 -10.5 22.3125 C-10.56703125 21.01892578 -10.6340625 19.72535156 -10.703125 18.39257812 C-10.89771468 8.97930229 -10.89771468 8.97930229 -8.25390625 6.09521484 C-6.09375 4.79296875 -6.09375 4.79296875 -3.92773438 3.88354492 C-1.64976667 3.04369164 -1.64976667 3.04369164 0 0 Z " fill="#DC5B3E" transform="translate(301,161)"/>
<path d="M0 0 C6.27 0 12.54 0 19 0 C19 2.64 19 5.28 19 8 C17.68 8 16.36 8 15 8 C15 13.94 15 19.88 15 26 C16.65 26.33 18.3 26.66 20 27 C20.04241723 29.33294775 20.04092937 31.66702567 20 34 C18.4779041 35.5220959 17.11789918 35.12959521 15 35.1328125 C14.195625 35.13410156 13.39125 35.13539062 12.5625 35.13671875 C11.716875 35.13285156 10.87125 35.12898438 10 35.125 C9.154375 35.12886719 8.30875 35.13273437 7.4375 35.13671875 C6.633125 35.13542969 5.82875 35.13414063 5 35.1328125 C4.2575 35.13168457 3.515 35.13055664 2.75 35.12939453 C1 35 1 35 0 34 C-0.04092937 31.66702567 -0.04241723 29.33294775 0 27 C1.65 26.67 3.3 26.34 5 26 C5 20.06 5 14.12 5 8 C3.35 8 1.7 8 0 8 C0 5.36 0 2.72 0 0 Z " fill="#DC593C" transform="translate(316,90)"/>
<path d="M0 0 C0.84755859 0.00322266 1.69511719 0.00644531 2.56835938 0.00976562 C3.44943359 0.01814453 4.33050781 0.02652344 5.23828125 0.03515625 C6.57729492 0.04192383 6.57729492 0.04192383 7.94335938 0.04882812 C10.14590112 0.06060642 12.34830724 0.07705461 14.55078125 0.09765625 C14.55078125 0.42765625 14.55078125 0.75765625 14.55078125 1.09765625 C10.59078125 1.09765625 6.63078125 1.09765625 2.55078125 1.09765625 C3.23140625 3.91296875 3.23140625 3.91296875 3.92578125 6.78515625 C4.18101562 7.84089844 4.43625 8.89664063 4.69921875 9.984375 C5.46983614 12.80172391 6.40576668 15.4143395 7.55078125 18.09765625 C8.21078125 18.09765625 8.87078125 18.09765625 9.55078125 18.09765625 C10.21078125 19.74765625 10.87078125 21.39765625 11.55078125 23.09765625 C9.90078125 23.09765625 8.25078125 23.09765625 6.55078125 23.09765625 C6.88078125 23.67515625 7.21078125 24.25265625 7.55078125 24.84765625 C8.55078125 27.09765625 8.55078125 27.09765625 8.55078125 31.09765625 C5.94721884 31.60099167 3.34301474 32.10045003 0.73828125 32.59765625 C0.00029297 32.74074219 -0.73769531 32.88382813 -1.49804688 33.03125 C-4.52716266 33.60691906 -7.35841475 34.09765625 -10.44921875 34.09765625 C-10.46984375 35.21140625 -10.49046875 36.32515625 -10.51171875 37.47265625 C-11.19807226 43.2754632 -14.64418079 47.80929938 -18.44921875 52.09765625 C-19.10921875 52.09765625 -19.76921875 52.09765625 -20.44921875 52.09765625 C-18.94921875 49.09765625 -18.94921875 49.09765625 -17.44921875 46.09765625 C-16.92044685 41.27803042 -16.56392439 36.72957263 -19.38671875 32.59765625 C-20.06734375 31.77265625 -20.74796875 30.94765625 -21.44921875 30.09765625 C-21.77921875 29.43765625 -22.10921875 28.77765625 -22.44921875 28.09765625 C-12.91725007 24.64171482 -4.5348399 23.37664992 5.55078125 23.09765625 C4.44925719 21.65813028 3.34445085 20.22111554 2.23828125 18.78515625 C1.62339844 17.98464844 1.00851563 17.18414062 0.375 16.359375 C-1.32406308 14.12503969 -1.32406308 14.12503969 -3.14453125 12.59375 C-4.90515982 10.57482562 -4.87828339 9.11553727 -5.01171875 6.47265625 C-5.09562997 4.12623783 -5.09562997 4.12623783 -5.44921875 2.09765625 C-6.10921875 1.76765625 -6.76921875 1.43765625 -7.44921875 1.09765625 C-4.6251011 0.1562837 -2.92003843 -0.01959757 0 0 Z " fill="#8F4E3B" transform="translate(243.44921875,201.90234375)"/>
<path d="M0 0 C0.144375 1.27875 0.28875 2.5575 0.4375 3.875 C1.64516103 9.60457976 5.07117313 12.87141897 9.1015625 16.93359375 C11 19 11 19 11 21 C-6.78283049 25.1480686 -6.78283049 25.1480686 -11.8515625 22.5234375 C-15.51893131 18.2318357 -17.14359244 14.0803061 -17.125 8.4375 C-17.12757813 7.65246094 -17.13015625 6.86742187 -17.1328125 6.05859375 C-17 4 -17 4 -16 2 C-10.47570753 0.25548659 -5.77149626 -0.20612487 0 0 Z " fill="#84422F" transform="translate(238,204)"/>
<path d="M0 0 C2.64 0 5.28 0 8 0 C9.485 3.465 9.485 3.465 11 7 C16.94 7.33 22.88 7.66 29 8 C28.67 9.65 28.34 11.3 28 13 C29.134375 12.95875 30.26875 12.9175 31.4375 12.875 C36.14383562 12.85816159 40.46316004 13.82378223 45 15 C45 15.66 45 16.32 45 17 C44.37246826 16.90912109 43.74493652 16.81824219 43.09838867 16.72460938 C24.7099023 14.11179958 7.50549431 12.04980514 -10.68481445 16.66430664 C-15.15615689 17.77836701 -18.41475133 18.15906922 -23 17 C-21.40768051 12.70073737 -18.60686641 10.64994267 -15 8 C-14.01 8 -13.02 8 -12 8 C-12.33 7.01 -12.66 6.02 -13 5 C-12.34 5 -11.68 5 -11 5 C-11 5.99 -11 6.98 -11 8 C-6.89299223 7.95996945 -6.89299223 7.95996945 -3 7 C-1.31016493 4.71019091 -0.81037139 2.78565167 0 0 Z " fill="#E0AE9F" transform="translate(237,189)"/>
<path d="M0 0 C3.63 0 7.26 0 11 0 C11 5.94 11 11.88 11 18 C12.32 18 13.64 18 15 18 C15 20.97 15 23.94 15 27 C11.85411056 27.02683697 8.70844729 27.04675902 5.5625 27.0625 C4.66466797 27.07087891 3.76683594 27.07925781 2.84179688 27.08789062 C1.56079102 27.09272461 1.56079102 27.09272461 0.25390625 27.09765625 C-0.53685303 27.10289307 -1.3276123 27.10812988 -2.14233398 27.11352539 C-4 27 -4 27 -5 26 C-5.04092937 23.66702567 -5.04241723 21.33294775 -5 19 C-3.35 18.67 -1.7 18.34 0 18 C0 12.06 0 6.12 0 0 Z " fill="#DC5D40" transform="translate(322,170)"/>
<path d="M0 0 C3.96 0 7.92 0 12 0 C12.70125 1.505625 13.4025 3.01125 14.125 4.5625 C16.19562817 8.75700106 18.43154503 11.96903895 21.765625 15.234375 C23 17 23 17 24 23 C19.05 22.67 14.1 22.34 9 22 C8.34 20.35 7.68 18.7 7 17 C6.34 17 5.68 17 5 17 C1.11610199 11.2367965 0.38005738 6.93604713 0 0 Z " fill="#84422F" transform="translate(246,203)"/>
<path d="M0 0 C2.35953094 2.35953094 2.49141413 3.77895617 3 7 C5.31 7.33 7.62 7.66 10 8 C10 17.57 10 27.14 10 37 C7.23749964 38.38125018 5.05268901 38.19079306 2 38 C0 36 0 36 -0.22705078 32.46826172 C-0.22673363 30.95536669 -0.21540633 29.44244912 -0.1953125 27.9296875 C-0.1924826 27.13345978 -0.18965271 26.33723206 -0.18673706 25.51687622 C-0.1755264 22.96943237 -0.15042062 20.42233789 -0.125 17.875 C-0.11497133 16.14974465 -0.10584528 14.42448381 -0.09765625 12.69921875 C-0.07558422 8.46601086 -0.04104867 4.2330647 0 0 Z " fill="#E1AFA1" transform="translate(276,117)"/>
<path d="M0 0 C0.33 0 0.66 0 1 0 C1 5.94 1 11.88 1 18 C2.65 18.33 4.3 18.66 6 19 C6.04241723 21.33294775 6.04092937 23.66702567 6 26 C4.4779041 27.5220959 3.11789918 27.12959521 1 27.1328125 C0.195625 27.13410156 -0.60875 27.13539062 -1.4375 27.13671875 C-2.283125 27.13285156 -3.12875 27.12898438 -4 27.125 C-4.845625 27.12886719 -5.69125 27.13273437 -6.5625 27.13671875 C-7.366875 27.13542969 -8.17125 27.13414063 -9 27.1328125 C-9.7425 27.13168457 -10.485 27.13055664 -11.25 27.12939453 C-13 27 -13 27 -14 26 C-14.04092937 23.66702567 -14.04241723 21.33294775 -14 19 C-12.35 18.67 -10.7 18.34 -9 18 C-9 17.34 -9 16.68 -9 16 C-6.03 16 -3.06 16 0 16 C0 10.72 0 5.44 0 0 Z " fill="#DD674B" transform="translate(330,98)"/>
<path d="M0 0 C3.63 0 7.26 0 11 0 C11 2.97 11 5.94 11 9 C11.66 9 12.32 9 13 9 C13.28875 8.071875 13.5775 7.14375 13.875 6.1875 C15 3 15 3 17 0 C19.3828125 -0.29296875 19.3828125 -0.29296875 22.125 -0.1875 C23.03507812 -0.16042969 23.94515625 -0.13335937 24.8828125 -0.10546875 C25.58148438 -0.07066406 26.28015625 -0.03585938 27 0 C27.33 1.65 27.66 3.3 28 5 C23.09945823 9.19031833 17.29872614 10.31457161 11 11 C6.34961903 10.36503251 2.36146968 9.36146968 -1 6 C-0.625 2.875 -0.625 2.875 0 0 Z " fill="#E2C6BD" transform="translate(197,161)"/>
<path d="M0 0 C-0.10701709 6.20699097 -1.60849027 10.90448054 -4.375 16.4375 C-4.67929932 17.05254395 -4.98359863 17.66758789 -5.29711914 18.30126953 C-6.94112463 21.46278475 -7.97475069 22.98316713 -11 25 C-11.67099984 22.39688008 -12.33695338 19.79264602 -13 17.1875 C-13.19078125 16.44951172 -13.3815625 15.71152344 -13.578125 14.95117188 C-14.35262914 11.89464659 -15 9.16626522 -15 6 C-13.35546875 4.6484375 -13.35546875 4.6484375 -11.1875 3.375 C-10.12595703 2.73691406 -10.12595703 2.73691406 -9.04296875 2.0859375 C-5.7784693 0.35069687 -3.75716417 0 0 0 Z " fill="#E3E0DB" transform="translate(344,226)"/>
<path d="M0 0 C0 15.51 0 31.02 0 47 C-1.98 47 -3.96 47 -6 47 C-5.83923477 46.42888489 -5.67846954 45.85776978 -5.51283264 45.26934814 C-5.00219253 43.00970222 -4.84343716 41.00301943 -4.79467773 38.69042969 C-4.7647599 37.4295755 -4.7647599 37.4295755 -4.73423767 36.14324951 C-4.71752518 35.24519592 -4.70081268 34.34714233 -4.68359375 33.421875 C-4.66281265 32.4953009 -4.64203156 31.56872681 -4.62062073 30.61407471 C-4.55533039 27.65945728 -4.49633569 24.70475232 -4.4375 21.75 C-4.39429527 19.74478268 -4.35068035 17.73957415 -4.30664062 15.734375 C-4.19967001 10.82300596 -4.09834482 5.91154903 -4 1 C-2 0 -2 0 0 0 Z " fill="#E0AFA1" transform="translate(308,114)"/>
<path d="M0 0 C1.18613892 0.00785522 1.18613892 0.00785522 2.39624023 0.01586914 C3.67724609 0.02070313 3.67724609 0.02070313 4.98413086 0.02563477 C5.88196289 0.03401367 6.77979492 0.04239258 7.70483398 0.05102539 C8.6065332 0.05553711 9.50823242 0.06004883 10.43725586 0.06469727 C12.67234712 0.07652315 14.90730835 0.09300319 17.14233398 0.11352539 C17.14233398 2.75352539 17.14233398 5.39352539 17.14233398 8.11352539 C13.40210396 9.36026873 9.91072538 9.25905294 6.01733398 9.23852539 C5.27612305 9.24239258 4.53491211 9.24625977 3.77124023 9.25024414 C-1.73100622 9.24018519 -1.73100622 9.24018519 -2.85766602 8.11352539 C-2.98266602 4.61352539 -2.98266602 4.61352539 -2.85766602 1.11352539 C-1.85766602 0.11352539 -1.85766602 0.11352539 0 0 Z " fill="#E2C8BF" transform="translate(319.857666015625,160.886474609375)"/>
<path d="M0 0 C0.99 0.33 1.98 0.66 3 1 C4.40664926 1.14492123 5.8181133 1.24628931 7.23046875 1.31640625 C8.43413086 1.37924805 8.43413086 1.37924805 9.66210938 1.44335938 C10.49548828 1.48267578 11.32886719 1.52199219 12.1875 1.5625 C13.03248047 1.60568359 13.87746094 1.64886719 14.74804688 1.69335938 C16.83184433 1.79931518 18.91590103 1.9001502 21 2 C20.67 3.65 20.34 5.3 20 7 C21.134375 6.95875 22.26875 6.9175 23.4375 6.875 C28.14383562 6.85816159 32.46316004 7.82378223 37 9 C37 9.66 37 10.32 37 11 C36.05870239 10.87153687 36.05870239 10.87153687 35.09838867 10.74047852 C21.39840249 8.89243411 7.81827071 7.47255879 -6 7 C-4.19587357 3.73539027 -3.16605307 2.11070205 0 0 Z " fill="#E0AD9E" transform="translate(245,195)"/>
<path d="M0 0 C-0.03480469 0.97839844 -0.03480469 0.97839844 -0.0703125 1.9765625 C-0.17583753 7.08698903 -0.01926302 11.20425033 2 16 C-0.64 16.66 -3.28 17.32 -6 18 C-10.11242982 12.47759424 -11.61669998 8.90703976 -11 2 C-7.1389146 0.56331706 -4.103573 -0.11185208 0 0 Z " fill="#856F66" transform="translate(222,207)"/>
<path d="M0 0 C4.62 0 9.24 0 14 0 C14.66 2.97 15.32 5.94 16 9 C10.06 9 4.12 9 -2 9 C-1 2 -1 2 0 0 Z " fill="#E2C8BF" transform="translate(235,161)"/>
<path d="M0 0 C0.84755859 0.00322266 1.69511719 0.00644531 2.56835938 0.00976562 C3.8899707 0.02233398 3.8899707 0.02233398 5.23828125 0.03515625 C6.57729492 0.04192383 6.57729492 0.04192383 7.94335938 0.04882812 C10.14590112 0.06060642 12.34830724 0.07705461 14.55078125 0.09765625 C14.55078125 0.42765625 14.55078125 0.75765625 14.55078125 1.09765625 C10.59078125 1.09765625 6.63078125 1.09765625 2.55078125 1.09765625 C3.00453125 2.99515625 3.45828125 4.89265625 3.92578125 6.84765625 C4.18101562 7.915 4.43625 8.98234375 4.69921875 10.08203125 C5.42611666 12.65618347 6.25340365 14.77365811 7.55078125 17.09765625 C4.62162908 17.51610656 2.44657065 17.63512989 -0.1484375 16.078125 C-3.54733888 13.09071289 -4.78692549 10.81314889 -5.19921875 6.28515625 C-5.2146875 5.51558594 -5.23015625 4.74601563 -5.24609375 3.953125 C-5.34664062 3.03466797 -5.34664062 3.03466797 -5.44921875 2.09765625 C-6.10921875 1.76765625 -6.76921875 1.43765625 -7.44921875 1.09765625 C-4.6251011 0.1562837 -2.92003843 -0.01959757 0 0 Z " fill="#A36351" transform="translate(243.44921875,201.90234375)"/>
<path d="M0 0 C4.62 0 9.24 0 14 0 C16 6 16 6 16 10 C9.48141987 10.47407856 4.65382631 9.38982147 -1 6 C-1.33 5.34 -1.66 4.68 -2 4 C-1.34 2.68 -0.68 1.36 0 0 Z " fill="#E1C4BA" transform="translate(267,161)"/>
<path d="M0 0 C3.1496513 1.67981403 3.74592319 3.67219466 4.875 7 C5.58461227 14.01578925 2.58912921 18.61130921 -1.43359375 24.12890625 C-1.99175781 24.74636719 -2.54992187 25.36382812 -3.125 26 C-3.785 26 -4.445 26 -5.125 26 C-4.125 24 -3.125 22 -2.125 20 C-1.5962281 15.18037417 -1.23970564 10.63191638 -4.0625 6.5 C-4.743125 5.675 -5.42375 4.85 -6.125 4 C-6.455 3.34 -6.785 2.68 -7.125 2 C-4.67142891 0.84136921 -2.73464304 0 0 0 Z " fill="#A56654" transform="translate(228.125,228)"/>
<path d="M0 0 C2.04040776 2.04040776 3 3.08325244 3 6 C-0.22016521 6.67938996 -3.45012855 7.2835356 -6.6875 7.875 C-8.05551758 8.16503906 -8.05551758 8.16503906 -9.45117188 8.4609375 C-12.08483334 8.92063114 -14.33560796 9.24909364 -17 9 C-19.45487024 7.23085912 -20.40044667 5.64683982 -22 3 C-19.45953542 2.49311395 -16.91791124 1.99433126 -14.375 1.5 C-13.66214844 1.35691406 -12.94929687 1.21382812 -12.21484375 1.06640625 C-8.1018749 0.27399941 -4.2085076 -0.34225815 0 0 Z " fill="#611F0F" transform="translate(246,219)"/>
<path d="M0 0 C1.98 0 3.96 0 6 0 C6.515625 1.155 7.03125 2.31 7.5625 3.5 C9.64872963 7.73271137 12.37682717 10.92682193 15.609375 14.3359375 C17 16 17 16 17 18 C14.10269129 18.1207212 12.63740545 18.08861013 10 17 C4.8723554 12.17614763 1.21156365 6.96649098 0 0 Z " fill="#856F65" transform="translate(258,203)"/>
<path d="M0 0 C2.9375 0.375 2.9375 0.375 6 1 C7.35439668 3.70879335 7.06501451 6.00933268 7 9 C7.66 9.061875 8.32 9.12375 9 9.1875 C13.18657836 10.32136497 16.42550992 12.59631064 20 15 C19.67 15.66 19.34 16.32 19 17 C17.2365625 16.2575 17.2365625 16.2575 15.4375 15.5 C11.43866853 14.03752983 8.28555237 13.27226469 4 14 C1.89214076 15.83639252 0.60518719 17.66518227 -1 20 C-1.66 19.67 -2.32 19.34 -3 19 C0.47136564 12.18124607 0.47136564 12.18124607 3.1875 11.25 C4.0846875 11.12625 4.0846875 11.12625 5 11 C5.33 10.01 5.66 9.02 6 8 C4.35 7.67 2.7 7.34 1 7 C0.67 4.69 0.34 2.38 0 0 Z " fill="#6C5349" transform="translate(269,220)"/>
<path d="M0 0 C2.08326131 -0.02709444 4.16662441 -0.04643873 6.25 -0.0625 C7.41015625 -0.07410156 8.5703125 -0.08570313 9.765625 -0.09765625 C12.40977128 -0.01782092 14.49826091 0.21356222 17 1 C17.33 2.98 17.66 4.96 18 7 C15.55764178 6.99399174 13.12806579 6.94671543 10.6875 6.875 C9.99720703 6.87757813 9.30691406 6.88015625 8.59570312 6.8828125 C6.57421875 6.8046875 6.57421875 6.8046875 3 6 C1.01953125 2.9453125 1.01953125 2.9453125 0 0 Z " fill="#321309" transform="translate(252,219)"/>
<path d="M0 0 C0.33 0 0.66 0 1 0 C1 15.84 1 31.68 1 48 C2.32 48.66 3.64 49.32 5 50 C8 53.42857143 8 53.42857143 8 56 C5.69 56 3.38 56 1 56 C-0.27469407 53.45061185 -0.12016184 51.66959002 -0.11352539 48.81591797 C-0.11344986 47.73494843 -0.11337433 46.65397888 -0.11329651 45.54025269 C-0.10813522 44.36939117 -0.10297394 43.19852966 -0.09765625 41.9921875 C-0.0962413 40.79643097 -0.09482635 39.60067444 -0.09336853 38.36868286 C-0.08775663 34.53743013 -0.07520208 30.70623516 -0.0625 26.875 C-0.05748653 24.28255293 -0.05292336 21.69010494 -0.04882812 19.09765625 C-0.03778333 12.73175102 -0.02103359 6.36587963 0 0 Z " fill="#E2D2CB" transform="translate(308,114)"/>
<path d="M0 0 C0.66 0 1.32 0 2 0 C2.33 1.65 2.66 3.3 3 5 C2.34 5 1.68 5 1 5 C0.67 6.32 0.34 7.64 0 9 C3.96 9 7.92 9 12 9 C12 9.33 12 9.66 12 10 C9.46045692 10.53384694 6.9193065 11.05230194 4.375 11.5625 C3.66214844 11.71396484 2.94929687 11.86542969 2.21484375 12.02148438 C-2.16017964 12.8844477 -5.58061174 13.05256724 -10 12 C-8.40768051 7.70073737 -5.60686641 5.64994267 -2 3 C-1.01 3 -0.02 3 1 3 C0.67 2.01 0.34 1.02 0 0 Z " fill="#D29A8A" transform="translate(224,194)"/>
<path d="M0 0 C1.65 0 3.3 0 5 0 C5 5.28 5 10.56 5 16 C3.68 16 2.36 16 1 16 C-1.35785972 11.4316468 -1.42484112 7.02893321 -1 2 C-0.67 1.34 -0.34 0.68 0 0 Z " fill="#604437" transform="translate(222,206)"/>
<path d="M0 0 C2.875 -0.1875 2.875 -0.1875 6 0 C8.24570414 3.36855621 8.20648839 4.93432836 7.625 8.859375 C6.55035204 12.54004428 4.4012542 15.04461021 2 18 C1.34 17.67 0.68 17.34 0 17 C0.33 16.67 0.66 16.34 1 16 C1.09955104 14.06461065 1.12968668 12.12544231 1.125 10.1875 C1.12757813 9.12917969 1.13015625 8.07085937 1.1328125 6.98046875 C1.02063661 4.46310983 0.7309121 2.39576745 0 0 Z " fill="#8F776C" transform="translate(250,225)"/>
<path d="M0 0 C0.66 0.33 1.32 0.66 2 1 C2.33 1.99 2.66 2.98 3 4 C3.33 2.68 3.66 1.36 4 0 C5.32 0.33 6.64 0.66 8 1 C7.67 2.32 7.34 3.64 7 5 C6.34 5 5.68 5 5 5 C5 5.66 5 6.32 5 7 C0.05 7 -4.9 7 -10 7 C-8.87816502 4.75633004 -7.60553445 2.92664134 -6 1 C-5.34 1 -4.68 1 -4 1 C-3.34 1.99 -2.68 2.98 -2 4 C-1.34 2.68 -0.68 1.36 0 0 Z " fill="#DD7057" transform="translate(239,432)"/>
<path d="M0 0 C1.134375 0.020625 2.26875 0.04125 3.4375 0.0625 C3.1075 1.7125 2.7775 3.3625 2.4375 5.0625 C3.571875 5.02125 4.70625 4.98 5.875 4.9375 C10.58133562 4.92066159 14.90066004 5.88628223 19.4375 7.0625 C19.4375 7.7225 19.4375 8.3825 19.4375 9.0625 C7.5575 7.5775 7.5575 7.5775 -4.5625 6.0625 C-4.5625 0.08004386 -4.5625 0.08004386 0 0 Z " fill="#D39784" transform="translate(262.5625,196.9375)"/>
<path d="M0 0 C-0.1386457 7.48686787 -3.04836457 12.41940395 -8 18 C-8.66 18 -9.32 18 -10 18 C-8.5 15 -8.5 15 -7 12 C-6.77377919 10.29636178 -6.59111527 8.58671299 -6.4375 6.875 C-6.31181641 5.50988281 -6.31181641 5.50988281 -6.18359375 4.1171875 C-6.12300781 3.41851562 -6.06242188 2.71984375 -6 2 C-1.125 0 -1.125 0 0 0 Z " fill="#824A3B" transform="translate(233,236)"/>
<path d="M0 0 C2.31 0.33 4.62 0.66 7 1 C7.125 4.375 7.125 4.375 7 8 C6.34 8.66 5.68 9.32 5 10 C3.35 10 1.7 10 0 10 C0 6.7 0 3.4 0 0 Z " fill="#E1B0A2" transform="translate(324,147)"/>
<path d="M0 0 C5.875 0.875 5.875 0.875 7 2 C7.1875 4.9375 7.1875 4.9375 7 8 C6.34 8.66 5.68 9.32 5 10 C3.35 10 1.7 10 0 10 C0 6.7 0 3.4 0 0 Z " fill="#E1B0A2" transform="translate(324,127)"/>
<path d="M0 0 C3.3 0 6.6 0 10 0 C7.79784009 4.40431982 6.16204503 5.5721404 2 8 C1.34 8 0.68 8 0 8 C0 5.36 0 2.72 0 0 Z " fill="#E2C5BB" transform="translate(291,161)"/>
<path d="M0 0 C1.4540625 0.0309375 1.4540625 0.0309375 2.9375 0.0625 C2.9375 2.0425 2.9375 4.0225 2.9375 6.0625 C3.9275 6.3925 4.9175 6.7225 5.9375 7.0625 C4.47957116 7.11649736 3.02107288 7.15529177 1.5625 7.1875 C0.75039063 7.21070313 -0.06171875 7.23390625 -0.8984375 7.2578125 C-3.0625 7.0625 -3.0625 7.0625 -5.0625 5.0625 C-4.45789299 1.07209375 -4.2025713 0.08576676 0 0 Z " fill="#DF9683" transform="translate(257.0625,431.9375)"/>
<path d="M0 0 C1.98 0 3.96 0 6 0 C6.99 2.31 7.98 4.62 9 7 C8.01 7.99 7.02 8.98 6 10 C5.01 9.67 4.02 9.34 3 9 C2.05078125 6.93359375 2.05078125 6.93359375 1.3125 4.4375 C1.06113281 3.61121094 0.80976563 2.78492188 0.55078125 1.93359375 C0.36902344 1.29550781 0.18726563 0.65742188 0 0 Z " fill="#9E604E" transform="translate(258,203)"/>
<path d="M0 0 C3.17538332 0.34021964 4.02276865 1.02466604 6.25 3.4375 C8 6 8 6 8 8 C5.69 8 3.38 8 1 8 C-0.35439668 5.29120665 -0.06501451 2.99066732 0 0 Z " fill="#E1C4BB" transform="translate(308,162)"/>
<path d="M0 0 C1.72945653 0.14235457 3.45855654 0.28904382 5.1875 0.4375 C6.63189453 0.55931641 6.63189453 0.55931641 8.10546875 0.68359375 C10.78649602 0.97666151 13.3662986 1.42703754 16 2 C16 2.33 16 2.66 16 3 C15.32453125 3.04898438 14.6490625 3.09796875 13.953125 3.1484375 C13.06109375 3.22320312 12.1690625 3.29796875 11.25 3.375 C10.36828125 3.44460937 9.4865625 3.51421875 8.578125 3.5859375 C6.00933618 3.99850055 4.24158985 4.71160957 2 6 C0 3 0 3 0 0 Z " fill="#844432" transform="translate(264,203)"/>
<path d="M0 0 C0.99 0.33 1.98 0.66 3 1 C2.67 2.98 2.34 4.96 2 7 C-0.64 7 -3.28 7 -6 7 C-4.19587357 3.73539027 -3.16605307 2.11070205 0 0 Z " fill="#D29A8B" transform="translate(245,195)"/>
<path d="M0 0 C-0.93274109 1.12894876 -1.87140122 2.25300876 -2.8125 3.375 C-3.33457031 4.00148437 -3.85664063 4.62796875 -4.39453125 5.2734375 C-6 7 -6 7 -9 9 C-8.67 6.36 -8.34 3.72 -8 1 C-5.07175348 0.02391783 -3.04386724 -0.08226668 0 0 Z " fill="#5F1E0D" transform="translate(241,235)"/>
<path d="M0 0 C-1.72743854 3.61939504 -3.47650757 6.87567603 -6 10 C-6.66 9.67 -7.32 9.34 -8 9 C-7.67 8.67 -7.34 8.34 -7 8 C-6.76924918 6.65252916 -6.58846937 5.29622435 -6.4375 3.9375 C-6.293125 2.638125 -6.14875 1.33875 -6 0 C-3 -1 -3 -1 0 0 Z " fill="#664F47" transform="translate(258,233)"/>
<path d="M0 0 C2.475 0.495 2.475 0.495 5 1 C5.125 3.375 5.125 3.375 5 6 C4.34 6.66 3.68 7.32 3 8 C2.01 8 1.02 8 0 8 C0 5.36 0 2.72 0 0 Z " fill="#E0AA9B" transform="translate(301,170)"/>
<path d="M0 0 C3.875 0.875 3.875 0.875 5 2 C5.04063832 3.66617115 5.042721 5.33388095 5 7 C3.35 7.33 1.7 7.66 0 8 C0 5.36 0 2.72 0 0 Z " fill="#E0A494" transform="translate(300,98)"/>
<path d="M0 0 C3.78496138 1.51398455 4.0072198 2.0144396 6 6 C2.7 5.67 -0.6 5.34 -4 5 C-2.68 3.35 -1.36 1.7 0 0 Z " fill="#5F4438" transform="translate(262,214)"/>
<path d="M0 0 C2.29633824 3.44450737 2.54016485 5.93812283 3 10 C1.35 10 -0.3 10 -2 10 C-1.54177532 6.53058454 -1.10868317 3.32604951 0 0 Z " fill="#E0A292" transform="translate(241,101)"/>
<path d="M0 0 C0.66 0 1.32 0 2 0 C2.33 3.3 2.66 6.6 3 10 C1.35 10 -0.3 10 -2 10 C-1.34 6.7 -0.68 3.4 0 0 Z " fill="#E0A291" transform="translate(272,101)"/>
<path d="M0 0 C0.66 0 1.32 0 2 0 C2.33 1.98 2.66 3.96 3 6 C0.36 6 -2.28 6 -5 6 C-3.38405168 3.95880212 -1.7143618 1.95927063 0 0 Z " fill="#745649" transform="translate(249,227)"/>
<path d="M0 0 C5.95507399 0.3916035 10.62819824 1.37124595 16 4 C15.67 4.99 15.34 5.98 15 7 C13.06087416 6.21232408 11.12375234 5.4197133 9.1875 4.625 C8.10855469 4.18414062 7.02960938 3.74328125 5.91796875 3.2890625 C3 2 3 2 0 0 Z " fill="#D6B9A7" transform="translate(287,207)"/>
<path d="M0 0 C0 2.64 0 5.28 0 8 C-4.875 3.25 -4.875 3.25 -6 1 C-4 0 -4 0 0 0 Z " fill="#92766A" transform="translate(227,229)"/>
<path d="M0 0 C0.33 0 0.66 0 1 0 C1.33 2.97 1.66 5.94 2 9 C0.68 9 -0.64 9 -2 9 C-1.125 1.125 -1.125 1.125 0 0 Z " fill="#E0AC9D" transform="translate(273,173)"/>
<path d="M0 0 C0.33 0 0.66 0 1 0 C1.33 2.97 1.66 5.94 2 9 C0.68 9 -0.64 9 -2 9 C-1.125 1.125 -1.125 1.125 0 0 Z " fill="#E0AC9D" transform="translate(241,173)"/>
<path d="M0 0 C0.99 0 1.98 0 3 0 C3.33 3.63 3.66 7.26 4 11 C3.34 11 2.68 11 2 11 C0.80712589 7.12315913 0 4.08378077 0 0 Z " fill="#E2CCC3" transform="translate(287,114)"/>
<path d="M0 0 C2.475 0.495 2.475 0.495 5 1 C4.67 2.32 4.34 3.64 4 5 C2.68 5 1.36 5 0 5 C0 3.35 0 1.7 0 0 Z " fill="#90796D" transform="translate(270,227)"/>
<path d="M0 0 C0.66 0 1.32 0 2 0 C2 0.66 2 1.32 2 2 C2.66 2 3.32 2 4 2 C3 5 3 5 2 7 C1.34 7 0.68 7 0 7 C0 4.69 0 2.38 0 0 Z " fill="#DE7860" transform="translate(225,432)"/>
</svg>
